<?xml version="1.0" encoding="utf-8"?>
<!-- Svg Vector Icons : http://www.onlinewebfonts.com/icon -->
<!DOCTYPE svg PUBLIC "-//W3C//DTD SVG 1.1//EN" "http://www.w3.org/Graphics/SVG/1.1/DTD/svg11.dtd">
<svg version="1.1" xmlns="http://www.w3.org/2000/svg" xmlns:xlink="http://www.w3.org/1999/xlink" x="0px" y="0px" viewBox="0 0 1000 1000" enable-background="new 0 0 1000 1000" xml:space="preserve">
<metadata> Svg Vector Icons : http://www.onlinewebfonts.com/icon </metadata>
<g><g transform="translate(0.000000,511.000000) scale(0.100000,-0.100000)"><path d="M2613.4,3762.9c-1339.3-672.5-2436.5-1226-2436.5-1231.7s242.1-130.7,538-278.6s538-272.9,538-278.6s-259.4-140.3-576.5-297.8C359.4,1518.5,100,1384,100,1378.2s269-144.1,595.7-307.5c328.6-163.3,595.7-301.7,595.7-307.5c0-5.8-267.1-144.1-595.7-307.5C369,292.6,100,154.2,100,148.4c0-5.8,269-144.1,595.7-307.5c328.6-163.3,595.7-301.7,595.7-307.4c0-5.7-267.1-144.1-595.7-307.5C367.1-937.3,100-1075.6,100-1081.4c0-5.7,269-144.1,595.7-307.5c328.6-163.3,595.7-301.7,595.7-307.4c0-5.7-267.1-144.1-595.7-307.5C367.1-2167.1,100-2305.4,100-2311.2c0-5.7,1099.1-561.1,2444.2-1233.6l2442.3-1224.1l2446.2,1224.1c1347,672.5,2448.1,1227.9,2448.1,1233.6c0,5.8-267.1,144.1-595.7,307.4c-326.7,163.3-595.7,301.7-595.7,307.5c0,5.8,269,144.1,595.7,307.4c328.6,163.3,595.7,301.7,595.7,307.5c0,5.8-267.1,144.1-595.7,307.4c-326.7,163.3-595.7,301.7-595.7,307.5c0,5.8,269,144.1,595.7,307.4c328.6,163.3,595.7,301.7,595.7,307.5c0,5.8-267.1,144.1-595.7,307.5c-326.7,163.3-595.7,301.7-595.7,307.5c0,5.8,269,144.1,595.7,307.5c328.6,163.3,595.7,301.7,595.7,307.5s-242.1,130.7-538,278.6s-538,272.9-538,278.6s246,132.6,547.6,284.4c443.9,221,547.6,280.6,547.6,311.3c0,32.7-415,246-2421.2,1249c-1331.7,664.9-2423.1,1208.7-2425,1208.7C5050,4986.9,3952.7,4435.5,2613.4,3762.9z M9131.4,2531.2c0-5.8-914.7-470.8-2031.1-1031.9L5067.3,477L3036.2,1495.5c-1118.3,561.1-2033,1026.1-2033,1035.7c0,9.6,914.7,476.5,2033,1035.7l2031.1,1016.5l2033-1020.3C8216.7,3002,9131.4,2536.9,9131.4,2531.2z M3380.1,919L5063.4,73.5l1654.5,828.2L8372.4,1728l340.1-169.1c188.3-94.2,342-174.9,342-180.6S8139.9,907.5,7023.4,346.4l-2033-1022.3L2959.3,342.5c-1118.3,561.1-2033,1026.1-2033,1031.9c0,17.3,712.9,388.2,745.6,388.2C1687.2,1762.6,2455.8,1382.1,3380.1,919z M3360.9-262.8l1623.7-816.7l1635.3,818.6l1637.2,816.7l397.8-197.9c221-109.5,399.7-203.7,399.7-209.5c0-5.8-914.7-470.8-2031.1-1031.9l-2033-1022.3L2959.3-887.3C1840.9-326.2,926.3,138.8,926.3,148.4c0,19.2,747.5,401.6,785.9,403.5C1725.6,552,2469.3,185,3360.9-262.8z M3360.9-1492.6l1625.6-816.7l1635.3,818.6L8257.1-674l397.8-197.9c221-109.5,399.7-203.7,399.7-209.5c0-5.7-914.7-470.8-2033-1031.9L4990.4-3135.5L2959.3-2117.1C1840.9-1556,926.3-1091,926.3-1081.4c0,17.3,745.6,401.6,784,403.5C1725.6-677.8,2467.4-1044.9,3360.9-1492.6z M3360.9-2722.4l1625.6-816.7l1635.3,818.6l1635.2,816.7l397.8-197.9c221-109.5,399.7-203.7,399.7-209.5c0-5.7-914.7-470.8-2031.1-1031.9l-2033-1022.3L2959.3-3346.9c-1118.3,561.1-2033,1026.1-2033,1035.7c0,17.3,745.6,401.6,784,403.5C1725.6-1907.6,2467.4-2274.7,3360.9-2722.4z"/></g></g>
</svg>